<svg id="Layer_1" data-name="Layer 1" xmlns="http://www.w3.org/2000/svg" viewBox="0 0 400 300"><title>#49 camping</title><polygon points="266.81 106.86 301.96 50.04 333.64 106.86 266.81 106.86" fill="#efefef"/><polygon points="281.4 73.84 302.78 32.16 322.06 73.84 281.4 73.84" fill="#efefef"/><polygon points="260.88 144.71 301.69 69 338.47 144.71 260.88 144.71" fill="#efefef"/><polygon points="252.1 187.51 302.6 91.03 348.14 187.51 252.1 187.51" fill="#efefef"/><rect x="291.19" y="187.51" width="16.98" height="56.57" fill="#a5a5a5"/><polygon points="258.7 173.09 243.23 138.49 253.28 138.49 233.84 98.48 244.59 98.48 224.69 59.73 202.62 98.48 212.13 98.48 190.56 138.49 202.31 138.49 185.15 173.09 258.7 173.09" fill="#c9c9c9" opacity="0.32"/><rect x="216.75" y="173.09" width="13.72" height="45.72" fill="#a5a5a5"/><path d="M106,108.58a30.88,30.88,0,0,0-1.11,8.14,2.48,2.48,0,0,0,2.66,2.31,5.47,5.47,0,0,0,5-3.27l2.25-4a4.45,4.45,0,0,0-1.06-5C111.3,104.27,106.63,105.63,106,108.58Z" fill="#f4a28c"/><polygon points="113.8 112.77 117.69 128.5 108.86 130.03 109.56 118.27 113.8 112.77" fill="#f4a28c"/><path d="M105.29,111.62l-1.7,1.62a.8.8,0,0,0,.26,1.32l1.79.69Z" fill="#f4a28c"/><path d="M109.54,118.6s3-1.39,3.84-2.62c0,0-.18,6.47-4.18,8.36Z" fill="#ce8172" opacity="0.31"/><path d="M110.89,113.06s.38-1.86,1.76-1.46.84,3.11-1.12,3Z" fill="#f4a28c"/><path d="M116.61,110.68l-1,1.78s-1.25,4.57-4.29,6.94-7.33,1.88-7.7-1.34c-.42-3.69,2-2.81,5.36-3s2.8-4.59,2.8-4.59a3.76,3.76,0,0,1-3.12-1.64l-2.16-1.43a3.57,3.57,0,0,1,3.11-3.84C113,103,119.84,105.38,116.61,110.68Z" fill="#24285b"/><path d="M113.74,111.13s2.4-1.42,3.29.49-1.79,3.41-3.61,2.25A4,4,0,0,0,113.74,111.13Z" fill="#f4a28c"/><ellipse cx="200" cy="255.53" rx="149.61" ry="21.86" fill="#e6e6e6" opacity="0.45"/><polygon points="132.26 244.08 232.95 244.08 176.25 159.81 132.26 244.08" fill="#c9c9c9"/><polygon points="176.25 159.81 261.83 159.81 314.39 244.08 232.95 244.08 176.25 159.81" fill="#e6e6e6"/><polygon points="176.25 159.81 176.25 244.08 184.1 244.08 176.25 159.81" fill="#a5a5a5"/><rect x="94.06" y="216.91" width="69.34" height="40.97" fill="#e6e6e6"/><path d="M126,257.88l-31,.22-.88-26.32,2.11-11.1,13.8-2,28.54-2s-1.77,8.9-8.49,13.11a17.6,17.6,0,0,0-8.54,14.72A20.86,20.86,0,0,0,126,257.88Z" fill="#a5a5a5" opacity="0.25"/><path d="M107.76,253.14s-1.23,3.42-4.32,3.68-3.89,3.28-1.12,4.06,9.93-2.78,9.93-2.78l-.2-4.45Z" fill="#66bbdb"/><path d="M108.11,129.85l8.83-1.52s29.36,0,34.5,10.09,4.06,47.49-12.93,78.21l-34.77,1s1.93-22.57-4.55-34.86S72.57,144.39,108.11,129.85Z" fill="#66bbdb"/><path d="M138.51,216.63l-17-2.57a16.28,16.28,0,0,0-18.62,17.77l2.22,21.61h8.35l-.73-20.23a7.66,7.66,0,0,1,8.87-7.85C128.83,226.53,137.8,226,138.51,216.63Z" fill="#24285b"/><path d="M90.44,253.14s-1.23,3.42-4.31,3.68-3.89,3.28-1.12,4.06,9.93-2.78,9.93-2.78l-.2-4.45Z" fill="#66bbdb"/><path d="M135.53,142s-9.64,8.45-7.7,17.78-16.94,32.57-16.94,32.57l-7,23.08,34.66,1.17,2.42-4.74Z" opacity="0.08"/><path d="M121.2,216.63l-17-2.57a16.28,16.28,0,0,0-18.62,17.77l2.22,21.61h8.34l-.72-20.23a7.66,7.66,0,0,1,8.87-7.85C111.52,226.53,120.49,226,121.2,216.63Z" fill="#24285b"/><polygon points="302.84 248.08 295.54 235.57 304.33 240.04 308.8 225.74 312.67 238.64 321.61 233.67 320.12 242.72 330.94 243.33 323.99 248.08 302.84 248.08" fill="#c9c9c9"/><path d="M136,140.68a9.73,9.73,0,0,1,15.64-4c3.75,3.4,7.28,9.34,7.07,19.64-.45,21.6-2.27,55.73-14.3,57.55s-20.11-33.12-20.11-33.12l5.66-6.42,7.6-7.28S132.19,151.48,136,140.68Z" fill="#66bbdb"/><path d="M136,140.68a9.73,9.73,0,0,1,15.64-4c3.75,3.4,7.28,9.34,7.07,19.64-.45,21.6-2.27,55.73-14.3,57.55s-20.11-33.12-20.11-33.12l5.66-6.42,7.6-7.28S132.19,151.48,136,140.68Z" fill="#fff" opacity="0.35"/><path d="M106.76,106.62l9.52,4.13a.74.74,0,0,0,.89-.22c.83-1,2.75-3.71,2.5-5.49-.31-2.27-2.08-6.19-5.16-6.5-2.39-.24-6-1.1-8.39,6.65A1.17,1.17,0,0,0,106.76,106.62Z" fill="#ffd200"/><path d="M113.14,193.28l17.57-17.75,1.11,1.1,8.72-8.82-5.94-5.88-8.72,8.82,1.11,1.1L109.42,189.6a13.71,13.71,0,1,0,3.72,3.68Z" fill="#ffd200"/><circle cx="101.81" cy="201.01" r="5.64" fill="#fff"/><path d="M130.65,177.93s1-5.69-5.37-2.75S119.44,191.6,130.65,177.93Z" fill="#f4a28c"/><path d="M92.9,198.78s9.29-1.79,9.89,1.12-.63,7.82-8.73,4.91S92.9,198.78,92.9,198.78Z" fill="#f4a28c"/><path d="M91.82,141.09s-33.19,41-26.55,63.35c5.36,18,28.79.37,28.79.37l-1.16-6L77.48,202,95.2,175.72Z" fill="#66bbdb"/><circle cx="159.79" cy="91.27" r="22.59" fill="#24285b"/><polygon points="146.32 99.64 137.2 116.62 152.83 105.3 146.32 99.64" fill="#24285b"/><polygon points="157.09 95.83 155.47 95.83 155.47 84.07 167.34 81.01 167.34 92.47 165.72 92.47 165.72 83.09 157.09 85.33 157.09 95.83" fill="#fff"/><ellipse cx="154.88" cy="98.39" rx="3.94" ry="2.65" transform="translate(-28.35 108.15) rotate(-35.48)" fill="#ffd200"/><ellipse cx="164.69" cy="95.07" rx="3.94" ry="2.65" transform="translate(-24.6 113.23) rotate(-35.48)" fill="#ffd200"/><path d="M95.2,175.72s-11.62-17.56-5.06-32.47c0,0-7.91,10.68-11.36,16.56,0,0,.82,18.54,10.86,24.14Z" opacity="0.08"/><circle cx="41.33" cy="127.03" r="3.95" fill="#c9c9c9"/><circle cx="148.96" cy="32.17" r="3.95" fill="#c9c9c9"/><circle cx="373" cy="244.08" r="3.95" fill="#c9c9c9"/><circle cx="373" cy="50.99" r="3.95" fill="#c9c9c9"/><circle cx="54" cy="33.12" r="3.95" fill="#c9c9c9" opacity="0.36"/><circle cx="256.41" cy="33.12" r="3.95" fill="#c9c9c9" opacity="0.36"/><circle cx="361.16" cy="138.35" r="3.95" fill="#c9c9c9" opacity="0.36"/><circle cx="167.34" cy="132.27" r="3.95" fill="#c9c9c9" opacity="0.36"/><circle cx="24.98" cy="233.78" r="3.95" fill="#c9c9c9" opacity="0.36"/></svg>