<svg id="Layer_1" data-name="Layer 1" xmlns="http://www.w3.org/2000/svg" viewBox="0 0 400 300"><title>#103_resting_twocolour</title><path d="M236.63,158.6s36.33-20.93,43,8.22-21.52,25.25-21.52,25.25Z" fill="#24285b"/><path d="M236.63,158.6s36.33-20.93,43,8.22-21.52,25.25-21.52,25.25Z" opacity="0.08"/><path d="M107.54,156.45l8.29-7.08s13.76-14.86,46.26-6.89,25.5,25.83,61,19.4l2.5,24.08S143,210.46,107.54,156.45Z" fill="#66bbdb"/><path d="M99.07,131.1s5.33,2.81,8.13,5.82a3,3,0,0,1-.17,4.28,6.66,6.66,0,0,1-7,1.66l-5.39-1.33A5.42,5.42,0,0,1,91,136.4C90.81,132.22,95.92,129.22,99.07,131.1Z" fill="#f4a28c"/><polygon points="95.76 141.39 107.47 157.26 115.75 150.18 103.9 141.48 95.76 141.39" fill="#f4a28c"/><path d="M98.47,132.49a23.9,23.9,0,0,1-3.36,4.43,5,5,0,0,1,4.63,3,4.09,4.09,0,0,1-1.31,5L92,140.66a6.11,6.11,0,0,1-2.91-5.57,20.12,20.12,0,0,1,.34-2.85c.45-2.36,3.47-4.3,3.29-6.79a1.45,1.45,0,0,1,2-1.42c2.17,1,5,3.34,4.41,6.72A5.65,5.65,0,0,1,98.47,132.49Z" fill="#24285b"/><path d="M99.94,139.26s-2-1.21-2.77.35,2,3.33,3.59,1.51Z" fill="#f4a28c"/><path d="M102.33,133l2.86-.15a1,1,0,0,1,1,1.32l-.89,2.17Z" fill="#f4a28c"/><path d="M104.11,141.92a7.15,7.15,0,0,1-3.67,1.83s2.59,2.56,7.73,1.16Z" fill="#ce8172" opacity="0.31"/><ellipse cx="200.09" cy="249.34" rx="168.5" ry="18.14" fill="#e6e6e6" opacity="0.45"/><path d="M268.46,218.84s1.33,3.51,4.52,3.73,4.08,3.33,1.23,4.19S263.89,224,263.89,224l.17-5.85Z" fill="#66bbdb"/><path d="M282.3,199.84s1.32,3.51,4.52,3.73,4.08,3.33,1.22,4.19S277.72,205,277.72,205l.18-5.85Z" fill="#66bbdb"/><path d="M133.78,146.21a27.42,27.42,0,0,1,21.56,8.88c9.5,10.23,24,29.55,68.93,18.21l.67,6.42-23.6,17.35-67.56-27.69Z" opacity="0.08"/><rect x="69.49" y="56.34" width="11.33" height="189.97" fill="#c9c9c9"/><path d="M108.8,159.71a11.54,11.54,0,0,1,5.74-14.29c3.6-1.73,8.7-2.66,15.57-.67,16.26,4.72,12.89,23.91,39.31,23.75s35.68-9.42,35.68-9.42a9.57,9.57,0,0,1,9.79-1.05c5.76,2.45,4.37,5.77-2.45,5.42,0,0-15.21,23.6-45.1,24C141.27,187.71,114.86,177,108.8,159.71Z" fill="#f4a28c"/><rect x="315.54" y="56.34" width="11.33" height="189.97" fill="#c9c9c9"/><path d="M80.83,120.69s28.47,67.9,131.59,60.25S315.54,118.3,315.54,118.3s13.06,70.68-59.12,93C190.09,231.9,99.23,224.09,80.83,120.69Z" fill="#ffd200"/><path d="M233.86,179.55s13.89.52,15.56,10,3,23,3,23l8.76-2.78,9.44-16.7-6.7-20.17-7.64-4.67Z" opacity="0.08"/><rect x="69.46" y="114.97" width="11.36" height="6.65" fill="#24285b"/><rect x="315.54" y="112.3" width="11.33" height="6.65" fill="#24285b"/><path d="M98.56,247.52s9.52-13.68-4.68-17.45,3.42-22.21-9.79-24.63-11,17.08-11,17.08-9.12-7.87-15.42-1.26,2.52,13.85,2.52,13.85-12.71,4.39-4.78,12.41Z" fill="#e6e6e6"/><path d="M79.47,249.34s6-10.33,15-9.06,7.95,9.06,7.95,9.06Z" fill="#c9c9c9"/><path d="M223.09,161.88s32.5-13.36,44-2.59,4,59.27,4,59.27l-9.5,2.51s.07-23.29-4.92-36.82a11,11,0,0,0-13.46-6.62,50.8,50.8,0,0,1-18.27,2.09Z" fill="#24285b"/><polygon points="315.7 246.24 321.79 220.47 324.62 235.47 338.17 220.47 333.18 238.39 345.3 229.97 337.93 246.24 315.7 246.24" fill="#e6e6e6"/><path d="M181.19,150.3s.65-4.21,7.9-1,6.75,11.74,0,10.49S181.19,150.3,181.19,150.3Z" fill="#f4a28c"/><path d="M181.19,150.3s.65-4.21,7.9-1,6.75,11.74,0,10.49S181.19,150.3,181.19,150.3Z" opacity="0.08"/><ellipse cx="202.94" cy="90.65" rx="33.67" ry="28.02" fill="#24285b"/><polygon points="179.46 103.45 167.46 123.84 187.2 109.19 179.46 103.45" fill="#24285b"/><circle cx="189.67" cy="90.65" r="4.16" fill="#fff"/><circle cx="203.02" cy="90.65" r="4.16" fill="#fff"/><circle cx="216.2" cy="90.65" r="4.16" fill="#fff"/><path d="M128.85,195.32a133.7,133.7,0,0,0,72.71,20.79,2.35,2.35,0,0,0,.48-4.65l-23.76-4.81A165.42,165.42,0,0,1,153,199.41l-22.07-8.28A2.35,2.35,0,0,0,128.85,195.32Z" fill="#fff" opacity="0.29"/></svg>